{"title":"Aloft.2015.HC.WEBRip.XviD.MP3-RARBG","uid":11955208,"size":1252633215,"categoryP":"video","categoryS":"movies","magnet":"?xt=urn:btih:a265eea0e83331c54c0dae663e98704fb5ddfb13&amp;dn=Aloft.2015.HC.WEBRip.XviD.MP3-RARBG&amp;tr=udp%3A%2F%2Ftracker.openbittorrent.com%3A80&amp;tr=udp%3A%2F%2Fopen.demonii.com%3A1337&amp;tr=udp%3A%2F%2Ftracker.coppersurfer.tk%3A6969&amp;tr=udp%3A%2F%2Fexodus.desync.com%3A6969","seeders":0,"leechers":0,"uploader":"vickey1992","files":4,"time":1432377248,"description":"Format                                   : AVI\nFormat/Info                              : Audio Video Interleave\nFile size                                : 1.17 GiB\nDuration                                 : 1h 48mn\nOverall bit rate                         : 1 543 Kbps\nMovie name                               : RARBG.COM - Aloft.2015.HC.WEBRip.XviD.MP3-RARBG\nWriting library                          : VirtualDub build 35491/release\nComment                                  : RARBG.COM - Aloft.2015.HC.WEBRip.XviD.MP3-RARBG\n\nVideo\nID                                       : 0\nFormat                                   : MPEG-4 Visual\nFormat profile                           : Simple@L5\nFormat settings, BVOP                    : No\nFormat settings, QPel                    : No\nFormat settings, GMC                     : No warppoints\nFormat settings, Matrix                  : Default (H.263)\nCodec ID                                 : XVID\nCodec ID/Hint                            : XviD\nDuration                                 : 1h 48mn\nBit rate                                 : 1 339 Kbps\nWidth                                    : 720 pixels\nHeight                                   : 400 pixels\nDisplay aspect ratio                     : 16:9\nFrame rate                               : 25.000 fps\nColor space                              : YUV\nChroma subsampling                       : 4:2:0\nBit depth                                : 8 bits\nScan type                                : Progressive\nCompression mode                         : Lossy\nBits/(Pixel*Frame)                       : 0.186\nStream size                              : 1.01 GiB (87%)\nWriting library                          : Lavc56.13.100\n\nAudio\nID                                       : 1\nFormat                                   : MPEG Audio\nFormat version                           : Version 1\nFormat profile                           : Layer 3\nMode                                     : Joint stereo\nMode extension                           : MS Stereo\nCodec ID                                 : 55\nCodec ID/Hint                            : MP3\nDuration                                 : 1h 48mn\nBit rate mode                            : Constant\nBit rate                                 : 192 Kbps\nChannel(s)                               : 2 channels\nSampling rate                            : 48.0 KHz\nCompression mode                         : Lossy\nStream size                              : 148 MiB (12%)\nAlignment                                : Aligned on interleaves\nInterleave, duration                     : 24 ms (0.60 video frame)\nInterleave, preload duration             : 504 ms\nWriting library                          : LAME3.99.5\nNotes:\nGreetz to all!","torrent":{"xt":"urn:btih:a265eea0e83331c54c0dae663e98704fb5ddfb13","amp;dn":"Aloft.2015.HC.WEBRip.XviD.MP3-RARBG","amp;tr":["udp%3A%2F%2Ftracker.openbittorrent.com%3A80","udp%3A%2F%2Fopen.demonii.com%3A1337","udp%3A%2F%2Ftracker.coppersurfer.tk%3A6969","udp%3A%2F%2Fexodus.desync.com%3A6969"],"infoHash":"a265eea0e83331c54c0dae663e98704fb5ddfb13","infoHashBuffer":{"type":"Buffer","data":[162,101,238,160,232,51,49,197,76,13,174,102,62,152,112,79,181,221,251,19]},"announce":[],"urlList":[]}}